<?xml version="1.0" standalone="no"?>
<!DOCTYPE svg PUBLIC "-//W3C//DTD SVG 20010904//EN"
 "http://www.w3.org/TR/2001/REC-SVG-20010904/DTD/svg10.dtd">
<svg version="1.0" xmlns="http://www.w3.org/2000/svg"
 width="530.000000pt" height="530.000000pt" viewBox="-116 140 530 530"
 preserveAspectRatio="xMidYMid meet">
<g transform="translate(0.000000,600.000000) scale(0.100000,-0.100000)"
fill="#000000" stroke="none">
<path d="M2403 4451 c-204 -58 -366 -205 -427 -386 l-23 -70 -63 -22 c-184
-66 -327 -238 -365 -438 -19 -98 -19 -149 1 -264 l16 -93 -35 -37 c-47 -49
-99 -133 -127 -206 -31 -83 -39 -244 -15 -335 38 -146 138 -273 271 -342 l71
-37 12 -58 c58 -260 250 -435 512 -467 103 -13 256 26 273 69 11 30 6 72 -10
86 -12 10 -43 13 -111 11 -65 -2 -111 2 -150 13 -197 57 -304 183 -322 374
-10 107 -20 124 -95 145 -100 29 -188 102 -232 192 -68 139 -39 320 69 428 58
58 117 87 187 93 68 6 115 -7 166 -48 45 -35 87 -38 108 -7 27 38 20 68 -25
109 -63 58 -130 79 -249 79 l-98 0 -18 53 c-64 192 41 417 227 482 73 26 83
22 118 -49 55 -111 164 -199 265 -212 36 -5 47 -3 65 15 24 24 27 59 9 84 -7
9 -39 26 -72 38 -107 39 -167 124 -174 244 -12 228 218 407 481 373 97 -13
176 -64 225 -147 l27 -46 5 -490 c5 -513 6 -521 50 -545 25 -13 76 -13 102 1
46 25 48 48 48 546 l0 468 24 50 c25 55 73 102 139 137 37 20 57 23 162 23
114 0 123 -2 188 -32 80 -38 163 -116 196 -187 29 -59 39 -166 21 -222 -29
-88 -104 -161 -185 -180 -44 -10 -65 -33 -65 -69 0 -49 29 -69 86 -61 100 13
221 113 271 222 l25 56 40 -6 c99 -16 204 -100 255 -204 25 -52 28 -67 28
-167 0 -78 -4 -119 -15 -140 l-15 -30 -110 -5 c-94 -4 -118 -9 -167 -33 -94
-46 -128 -103 -92 -155 21 -30 65 -29 102 3 116 98 283 62 393 -85 77 -103 92
-266 34 -383 -46 -93 -139 -168 -242 -196 -58 -16 -83 -50 -83 -115 0 -247
-200 -422 -472 -414 -101 3 -115 -1 -128 -38 -23 -59 36 -105 159 -125 277
-43 555 156 626 448 l17 72 75 41 c137 76 242 214 272 358 15 74 13 197 -4
262 -21 81 -78 188 -131 248 l-47 53 14 77 c61 337 -86 616 -379 721 -42 15
-46 20 -69 86 -64 175 -198 306 -385 373 -58 21 -96 27 -190 30 -176 6 -271
-21 -382 -110 -32 -26 -64 -48 -69 -48 -5 0 -26 15 -47 34 -55 50 -124 87
-199 108 -88 24 -261 24 -348 -1z"/>
<path d="M2453 2774 c-44 -22 -63 -68 -63 -154 0 -89 19 -132 67 -155 30 -15
42 -15 75 -6 60 18 78 56 78 161 -1 94 -11 121 -56 151 -35 23 -59 24 -101 3z"/>
<path d="M3448 2774 c-43 -23 -58 -63 -58 -154 0 -97 16 -135 67 -156 45 -19
83 -11 119 27 26 27 29 38 33 111 4 98 -15 149 -64 172 -41 20 -62 20 -97 0z"/>
<path d="M2715 2276 c-22 -16 -24 -67 -4 -92 24 -29 146 -82 220 -95 83 -15
176 -2 258 37 88 40 111 61 111 99 0 36 -21 65 -48 65 -9 0 -50 -17 -91 -37
-69 -35 -80 -38 -161 -38 -81 0 -92 3 -161 38 -81 41 -96 44 -124 23z"/>
</g>
</svg>
